<svg width="20" height="20" viewBox="0 0 20 20" fill="none" xmlns="http://www.w3.org/2000/svg">
<path d="M13.3821 13.3907L13.8381 12.9377L12.7791 11.8737L12.3251 12.3267L13.3821 13.3907ZM15.3671 12.7477L17.2781 13.7867L17.9931 12.4687L16.0831 11.4307L15.3671 12.7477ZM17.6451 15.8507L16.2251 17.2637L17.2821 18.3267L18.7021 16.9147L17.6451 15.8507ZM15.3591 17.7177C13.9091 17.8537 10.1591 17.7327 6.0971 13.6947L5.0391 14.7577C9.4711 19.1647 13.6901 19.3807 15.4991 19.2117L15.3591 17.7177ZM6.0971 13.6947C2.2261 9.84472 1.5841 6.60772 1.5041 5.20272L0.00610311 5.28772C0.106103 7.05572 0.901103 10.6437 5.0391 14.7577L6.0971 13.6947ZM7.4721 7.51472L7.7591 7.22872L6.7031 6.16572L6.4161 6.45072L7.4721 7.51472ZM7.9871 3.59372L6.7271 1.90972L5.5261 2.80972L6.7861 4.49272L7.9871 3.59372ZM2.4861 1.54272L0.916103 3.10272L1.9741 4.16672L3.5431 2.60672L2.4861 1.54272ZM6.9441 6.98272C6.4141 6.45072 6.4141 6.45072 6.4141 6.45272H6.4121L6.4091 6.45672C6.36189 6.5049 6.31936 6.55747 6.2821 6.61372C6.2281 6.69372 6.1691 6.79872 6.1191 6.93172C5.99733 7.27503 5.96701 7.64413 6.0311 8.00272C6.1651 8.86772 6.7611 10.0107 8.2871 11.5287L9.3451 10.4647C7.9161 9.04472 7.5761 8.18072 7.5131 7.77272C7.4831 7.57872 7.5141 7.48272 7.5231 7.46072C7.5281 7.44672 7.5301 7.44572 7.5231 7.45472C7.51428 7.46858 7.50424 7.48163 7.4931 7.49372L7.4831 7.50372C7.47987 7.50682 7.47654 7.50983 7.4731 7.51272L6.9441 6.98272ZM8.2871 11.5287C9.8141 13.0467 10.9631 13.6387 11.8291 13.7707C12.2721 13.8387 12.6291 13.7847 12.9001 13.6837C13.0516 13.6276 13.1934 13.548 13.3201 13.4477C13.3373 13.4333 13.354 13.4183 13.3701 13.4027L13.3771 13.3967L13.3801 13.3937L13.3811 13.3917C13.3811 13.3917 13.3821 13.3907 12.8531 12.8587C12.3231 12.3267 12.3261 12.3257 12.3261 12.3257L12.3281 12.3237L12.3301 12.3217L12.3361 12.3167L12.3461 12.3067C12.3581 12.2959 12.3708 12.2859 12.3841 12.2767C12.3941 12.2697 12.3911 12.2727 12.3771 12.2787C12.3521 12.2877 12.2541 12.3187 12.0571 12.2887C11.6431 12.2247 10.7731 11.8847 9.3451 10.4647L8.2871 11.5287ZM6.7271 1.90872C5.7071 0.548716 3.7031 0.332716 2.4861 1.54272L3.5431 2.60672C4.0751 2.07772 5.0191 2.13272 5.5261 2.80972L6.7271 1.90872ZM1.5051 5.20372C1.4851 4.85772 1.6441 4.49572 1.9741 4.16772L0.915103 3.10372C0.378103 3.63772 -0.0448969 4.39372 0.00610311 5.28772L1.5051 5.20372ZM16.2251 17.2637C15.9511 17.5377 15.6551 17.6917 15.3601 17.7187L15.4991 19.2117C16.2341 19.1427 16.8351 18.7727 17.2831 18.3277L16.2251 17.2637ZM7.7591 7.22872C8.7441 6.24972 8.8171 4.70272 7.9881 3.59472L6.7871 4.49372C7.1901 5.03272 7.1301 5.73972 6.7021 6.16672L7.7591 7.22872ZM17.2791 13.7877C18.0961 14.2317 18.2231 15.2777 17.6461 15.8517L18.7041 16.9147C20.0441 15.5817 19.6311 13.3587 17.9941 12.4697L17.2791 13.7877ZM13.8381 12.9387C14.2221 12.5567 14.8401 12.4627 15.3681 12.7487L16.0841 11.4317C15.0001 10.8417 13.6561 11.0047 12.7801 11.8747L13.8381 12.9387Z" fill="black"/>
</svg>
