<svg width="34" height="22" viewBox="0 0 34 22" fill="none" xmlns="http://www.w3.org/2000/svg">
<path d="M28.5029 21.875C31.1229 21.875 33.2529 20.4736 33.2529 18.75V3.125C33.2529 1.40137 31.1229 0 28.5029 0H4.75293C2.13301 0 0.00292969 1.40137 0.00292969 3.125V18.75C0.00292969 20.4736 2.13301 21.875 4.75293 21.875H28.5029ZM16.6279 15.625C16.1307 15.625 15.6631 15.4883 15.3217 15.249L7.60293 9.78027C7.12051 9.43848 6.99434 8.94043 7.27637 8.51562C7.5584 8.09082 8.2041 7.8125 8.90918 7.8125H24.3467C25.0518 7.8125 25.6975 8.09082 25.9795 8.51562C26.2615 8.94043 26.1354 9.43848 25.6529 9.78027L17.9342 15.249C17.6002 15.4883 17.1252 15.625 16.6279 15.625Z" fill="#2D2D2D"/>
</svg>
